<svg width="38" height="37" viewBox="0 0 38 37" fill="none" xmlns="http://www.w3.org/2000/svg">
    <path d="M10.5205 12.5026C9.14842 12.5026 8.03842 11.3926 8.03842 10.0205C8.03842 9.36222 8.29993 8.73089 8.76541 8.26541C9.23089 7.79993 9.86222 7.53842 10.5205 7.53842C11.8926 7.53842 13.0026 8.64842 13.0026 10.0205C13.0026 10.6788 12.7411 11.3101 12.2756 11.7756C11.8101 12.2411 11.1788 12.5026 10.5205 12.5026ZM10.5205 3.08301C6.66634 3.08301 3.58301 6.16634 3.58301 10.0205C3.58301 15.2159 10.5205 22.9088 10.5205 22.9088C10.5205 22.9088 17.458 15.2159 17.458 10.0205C17.458 6.16634 14.3747 3.08301 10.5205 3.08301ZM27.4788 12.5026C26.8206 12.5026 26.1892 12.2411 25.7237 11.7756C25.2583 11.3101 24.9968 10.6788 24.9968 10.0205C24.9968 9.69456 25.061 9.3718 25.1857 9.07066C25.3104 8.76952 25.4933 8.49589 25.7237 8.26541C25.9542 8.03493 26.2278 7.8521 26.529 7.72736C26.8301 7.60262 27.1529 7.53842 27.4788 7.53842C27.8048 7.53842 28.1276 7.60262 28.4287 7.72736C28.7298 7.8521 29.0035 8.03493 29.2339 8.26541C29.4644 8.49589 29.6473 8.76952 29.772 9.07066C29.8967 9.3718 29.9609 9.69456 29.9609 10.0205C29.9609 10.6788 29.6994 11.3101 29.2339 11.7756C28.7685 12.2411 28.1371 12.5026 27.4788 12.5026ZM27.4788 3.08301C23.6247 3.08301 20.5413 6.16634 20.5413 10.0205C20.5413 15.2159 27.4788 22.9088 27.4788 22.9088C27.4788 22.9088 34.4163 15.2159 34.4163 10.0205C34.4163 6.16634 31.333 3.08301 27.4788 3.08301ZM27.4788 24.6663C25.5209 24.6663 23.7788 25.8997 23.1313 27.7497H14.868C14.4595 26.5958 13.6103 25.651 12.5064 25.1222C11.4025 24.5933 10.134 24.5237 8.97884 24.9284C8.4047 25.1296 7.87583 25.442 7.42248 25.8477C6.96913 26.2534 6.60019 26.7444 6.33674 27.2928C6.0733 27.8412 5.92051 28.4361 5.88713 29.0435C5.85374 29.651 5.94041 30.2591 6.14217 30.833C6.55621 31.9899 7.41118 32.9359 8.52037 33.4645C9.62956 33.9931 10.9028 34.0613 12.0622 33.6543C13.3726 33.1918 14.3747 32.1434 14.868 30.833H23.1468C23.9947 33.238 26.6463 34.5022 29.0205 33.6543C29.5964 33.4551 30.1273 33.1442 30.5826 32.7393C31.038 32.3344 31.4088 31.8435 31.6738 31.2948C31.9389 30.7461 32.0928 30.1504 32.127 29.5421C32.1611 28.9337 32.0746 28.3245 31.8726 27.7497C31.2097 25.8997 29.4522 24.6663 27.4788 24.6663ZM27.4788 31.6038C26.8655 31.6038 26.2773 31.3602 25.8437 30.9265C25.41 30.4928 25.1663 29.9047 25.1663 29.2913C25.1663 28.678 25.41 28.0898 25.8437 27.6562C26.2773 27.2225 26.8655 26.9788 27.4788 26.9788C28.0922 26.9788 28.6803 27.2225 29.114 27.6562C29.5477 28.0898 29.7913 28.678 29.7913 29.2913C29.7913 29.9047 29.5477 30.4928 29.114 30.9265C28.6803 31.3602 28.0922 31.6038 27.4788 31.6038Z" fill="#367367" style="fill:#367367;fill:color(display-p3 0.2118 0.4510 0.4039);fill-opacity:1;"/>
</svg>
