<svg width="25" height="25" viewBox="0 0 25 25" fill="none" xmlns="http://www.w3.org/2000/svg">
<path fill-rule="evenodd" clip-rule="evenodd" d="M12.5 25C19.4036 25 25 19.4036 25 12.5C25 5.59644 19.4036 0 12.5 0C5.59644 0 0 5.59644 0 12.5C0 19.4036 5.59644 25 12.5 25Z" fill="#4252FF" style="fill:#4252FF;fill:color(display-p3 0.2588 0.3216 1.0000);fill-opacity:1;"/>
<rect x="3.75" y="3.75" width="17.5" height="17.5" fill="#FF0000" fill-opacity="0.01" style="fill:#FF0000;fill:color(display-p3 1.0000 0.0000 0.0000);fill-opacity:0.01;"/>
<path fill-rule="evenodd" clip-rule="evenodd" d="M15.2361 18.4736C14.3981 18.8168 13.4726 19.0087 12.5 19.0087C8.63317 19.0087 5.5 15.9865 5.5 12.2543C5.5 8.52548 8.63317 5.5 12.5 5.5C16.3668 5.5 19.5 8.52548 19.4933 12.2611C19.4933 13.6038 19.0861 14.8558 18.3827 15.9091C18.3524 15.9462 18.3255 15.9899 18.2986 16.0337C18.2178 16.1784 18.1673 16.3466 18.1673 16.525L18.9111 19.5L16.0841 18.4601C15.9596 18.4062 15.8216 18.3793 15.6769 18.3793C15.5457 18.3793 15.4178 18.4029 15.3 18.4466C15.3 18.45 15.2966 18.45 15.2933 18.45C15.2731 18.4567 15.2562 18.4635 15.2361 18.4736ZM16.8077 12.5C16.8077 11.9043 16.3264 11.4231 15.7308 11.4231C15.1351 11.4231 14.6538 11.9043 14.6538 12.5C14.6538 13.0957 15.1351 13.5769 15.7308 13.5769C16.3264 13.5769 16.8077 13.0957 16.8077 12.5ZM12.5 11.4231C13.0957 11.4231 13.5769 11.9043 13.5769 12.5C13.5769 13.0957 13.0957 13.5769 12.5 13.5769C11.9043 13.5769 11.4231 13.0957 11.4231 12.5C11.4231 11.9043 11.9043 11.4231 12.5 11.4231ZM10.3462 12.5C10.3462 11.9043 9.8649 11.4231 9.26923 11.4231C8.67356 11.4231 8.19231 11.9043 8.19231 12.5C8.19231 13.0957 8.67356 13.5769 9.26923 13.5769C9.8649 13.5769 10.3462 13.0957 10.3462 12.5Z" fill="black" style="fill:black;fill-opacity:1;"/>
<mask id="mask0_395_3383" style="mask-type:luminance" maskUnits="userSpaceOnUse" x="5" y="5" width="15" height="15">
<path fill-rule="evenodd" clip-rule="evenodd" d="M15.2361 18.4736C14.3981 18.8168 13.4726 19.0087 12.5 19.0087C8.63317 19.0087 5.5 15.9865 5.5 12.2543C5.5 8.52548 8.63317 5.5 12.5 5.5C16.3668 5.5 19.5 8.52548 19.4933 12.2611C19.4933 13.6038 19.0861 14.8558 18.3827 15.9091C18.3524 15.9462 18.3255 15.9899 18.2986 16.0337C18.2178 16.1784 18.1673 16.3466 18.1673 16.525L18.9111 19.5L16.0841 18.4601C15.9596 18.4062 15.8216 18.3793 15.6769 18.3793C15.5457 18.3793 15.4178 18.4029 15.3 18.4466C15.3 18.45 15.2966 18.45 15.2933 18.45C15.2731 18.4567 15.2562 18.4635 15.2361 18.4736ZM16.8077 12.5C16.8077 11.9043 16.3264 11.4231 15.7308 11.4231C15.1351 11.4231 14.6538 11.9043 14.6538 12.5C14.6538 13.0957 15.1351 13.5769 15.7308 13.5769C16.3264 13.5769 16.8077 13.0957 16.8077 12.5ZM12.5 11.4231C13.0957 11.4231 13.5769 11.9043 13.5769 12.5C13.5769 13.0957 13.0957 13.5769 12.5 13.5769C11.9043 13.5769 11.4231 13.0957 11.4231 12.5C11.4231 11.9043 11.9043 11.4231 12.5 11.4231ZM10.3462 12.5C10.3462 11.9043 9.8649 11.4231 9.26923 11.4231C8.67356 11.4231 8.19231 11.9043 8.19231 12.5C8.19231 13.0957 8.67356 13.5769 9.26923 13.5769C9.8649 13.5769 10.3462 13.0957 10.3462 12.5Z" fill="white" style="fill:white;fill-opacity:1;"/>
</mask>
<g mask="url(#mask0_395_3383)">
<rect x="3.75" y="3.75" width="17.5" height="17.5" fill="white" style="fill:white;fill-opacity:1;"/>
</g>
</svg>
